PathFileType	4	(X/Y/Z)	D:\Share\Shared_Data\Ergonomics\Sit To Stand Pertubation\S2\Unperturbed.trc
DataRate	CameraRate	NumFrames	NumMarkers	Units	OrigDataRate	OrigDataStartFrame	OrigNumFrames	
100	100	6	18	m	100	4006	291
Frame#	Time	R_Toe			R_ASIS			R_Pelvis			V_Sacral			L_Pelvis			L_ASIS			Clavical			R_Acromium			L_Acromium			Sternum			Torso			R_Thigh_Med			R_Thigh_Lat			R_Thigh			R_Shank_Med			R_Shank_Lat			R_Shank			R_Heel			
		X1	Y1	Z1	X2	Y2	Z2	X3	Y3	Z3	X4	Y4	Z4	X5	Y5	Z5	X6	Y6	Z6	X7	Y7	Z7	X8	Y8	Z8	X9	Y9	Z9	X10	Y10	Z10	X11	Y11	Z11	X12	Y12	Z12	X13	Y13	Z13	X14	Y14	Z14	X15	Y15	Z15	X16	Y16	Z16	X17	Y17	Z17	X18	Y18	Z18	

4006	40.05	0.44169791	0.064740257	0.149564	0.24365474	0.88767645	0.14393221	0.18326358	0.92758453	0.18972874	0.031849916	0.94810571	0.033902534	0.13919295	0.93953613	-0.14910068	0.22874249	0.90175751	-0.12208736	0.49263406	1.1944575	-0.0049993572	0.44233957	1.2736494	0.19913132	0.42488232	1.2754706	-0.18908286	0.43889917	1.0428621	0.0019635434	0.47648685	1.1566768	-0.11437373	0.44276886	0.48070691	0.11249943	0.42528555	0.49898459	0.20962195	0.38996002	0.69011322	0.17669901	0.30872565	0.10827382	0.11192799	0.28685999	0.099091042	0.20471124	0.37962546	0.35312198	0.23151184	0.20369777	0.059168182	0.15225169
4007	40.06	0.44164722	0.064865387	0.14964171	0.24651799	0.89223737	0.14400038	0.18617195	0.93173712	0.18975285	0.034912743	0.95243439	0.033790176	0.14209575	0.94356885	-0.14916899	0.23175772	0.90616443	-0.12214997	0.4934339	1.2014318	-0.0048748994	0.44256528	1.2800804	0.19938075	0.42504886	1.2820315	-0.18881516	0.44094217	1.0494032	0.0019979062	0.47754218	1.1635575	-0.11432584	0.44156522	0.48115433	0.11262594	0.42411707	0.49950125	0.20957529	0.39120267	0.69077875	0.17682552	0.30872885	0.10825533	0.11183576	0.28682761	0.09917704	0.20457071	0.37862106	0.35356186	0.23152739	0.20375642	0.059187881	0.15219862
4008	40.07	0.44159912	0.06496196	0.14970375	0.24939174	0.89675726	0.14407825	0.18911807	0.9358363	0.18974821	0.037987644	0.95671893	0.033656067	0.14500545	0.94756024	-0.14923679	0.23479617	0.91055237	-0.12221308	0.49419467	1.2083767	-0.0047352953	0.44273276	1.2864802	0.19963776	0.42517252	1.2885516	-0.18854796	0.44293039	1.0559248	0.0020429347	0.47856979	1.170405	-0.11426678	0.44031183	0.481616	0.11280195	0.42287598	0.50003439	0.2095822	0.39239438	0.69143274	0.17698254	0.30872287	0.10824409	0.1117618	0.28678082	0.099252541	0.20444302	0.37755545	0.3540108	0.23158266	0.20381163	0.059206787	0.15214755
4009	40.08	0.44155402	0.065034195	0.14975453	0.25227702	0.90123053	0.14415677	0.1921011	0.93988055	0.18971245	0.041073696	0.96095245	0.033505051	0.14791957	0.9515097	-0.14930417	0.23786453	0.91492114	-0.12227302	0.49491553	1.2152886	-0.0045800114	0.44284064	1.2928436	0.19990208	0.42525165	1.2950297	-0.18828169	0.4448674	1.0624211	0.0020968235	0.47957327	1.1772156	-0.11419786	0.43901352	0.48208795	0.11302048	0.42156842	0.50058145	0.20963535	0.39353989	0.69207306	0.17716533	0.30870975	0.10823909	0.11170486	0.28671945	0.099317329	0.20432671	0.37643124	0.35446716	0.23167107	0.20386394	0.059222473	0.15209671
4010	40.09	0.44151202	0.065087837	0.14979813	0.25517442	0.90565289	0.14422926	0.19509807	0.94386884	0.18964781	0.044169426	0.96512732	0.03334296	0.15083618	0.95541559	-0.14937221	0.24096666	0.9192663	-0.12232961	0.49559579	1.2221611	-0.0044093885	0.44288809	1.2991643	0.20017389	0.42528528	1.3014612	-0.18801477	0.44676093	1.0688855	0.0021577079	0.48055585	1.183985	-0.11412056	0.43767587	0.48256635	0.11327143	0.42020203	0.50113998	0.20972342	0.39464322	0.69269635	0.17736595	0.3086911	0.10823904	0.11166305	0.28664392	0.099371567	0.20422073	0.37525275	0.35492966	0.2317838	0.20391339	0.05923373	0.15204523
4011	40.1	0.44147318	0.065128487	0.14983752	0.25808551	0.91002271	0.14429247	0.1980631	0.94779926	0.18956204	0.047273136	0.96923486	0.033174744	0.15375465	0.95927484	-0.14944087	0.24410027	0.92357898	-0.12238832	0.49623569	1.2289878	-0.004224638	0.442875	1.3054351	0.20045293	0.42527258	1.3078403	-0.18774495	0.4486218	1.0753094	0.0022234035	0.4815217	1.1907087	-0.1140364	0.43630499	0.48304755	0.11354198	0.4187858	0.50170718	0.20983269	0.39570688	0.69329944	0.17757494	0.30866864	0.10824252	0.11163398	0.286556	0.099415398	0.20412468	0.37402704	0.35539694	0.23191125	0.20395984	0.059241146	0.15199297
